<svg width="344" height="108" viewBox="0 0 344 108" fill="none" xmlns="http://www.w3.org/2000/svg"><path fill-rule="evenodd" clip-rule="evenodd" d="M343.61 32.96H334.87V75.35H343.61V32.96ZM231.5 32.97V75.35H223.15V71.81C220.98 74.48 217.85 75.81 213.74 75.81C210.9 75.81 208.33 75.16 206.04 73.87C203.74 72.58 201.94 70.73 200.63 68.33C199.32 65.93 198.67 63.15 198.67 59.99C198.67 56.83 199.32 54.05 200.63 51.65C201.94 49.25 203.74 47.4 206.04 46.11C208.34 44.82 210.91 44.17 213.74 44.17C217.59 44.17 220.59 45.41 222.76 47.88V32.97H231.5ZM220.74 66.18C222.2 64.64 222.92 62.57 222.92 59.98C222.92 57.39 222.19 55.32 220.74 53.78C219.28 52.24 217.45 51.47 215.25 51.47C213.05 51.47 211.16 52.24 209.7 53.78C208.24 55.32 207.52 57.39 207.52 59.98C207.52 62.57 208.25 64.64 209.7 66.18C211.16 67.72 213.01 68.49 215.25 68.49C217.49 68.49 219.28 67.72 220.74 66.18ZM99.64 74.7499C96.75 73.8899 94.42 72.7799 92.66 71.4099L95.74 64.4399C97.42 65.6999 99.42 66.7099 101.74 67.4699C104.06 68.2299 106.37 68.6099 108.69 68.6099C111.27 68.6099 113.17 68.2199 114.4 67.4399C115.63 66.6599 116.25 65.6199 116.25 64.3299C116.25 63.3799 115.89 62.5899 115.16 61.9599C114.43 61.3299 113.5 60.8299 112.36 60.4499C111.22 60.0699 109.68 59.6499 107.74 59.1899C104.75 58.4699 102.31 57.7399 100.4 57.0199C98.49 56.2999 96.86 55.1299 95.5 53.5399C94.14 51.9399 93.46 49.8099 93.46 47.1399C93.46 44.8199 94.08 42.7099 95.31 40.8299C96.54 38.9499 98.4 37.4499 100.89 36.3499C103.37 35.2499 106.41 34.6899 109.99 34.6899C112.49 34.6899 114.94 34.9999 117.33 35.5999C119.72 36.2099 121.81 37.0899 123.61 38.2299L120.81 45.2599C117.19 43.1699 113.56 42.1199 109.94 42.1199C107.4 42.1199 105.52 42.5399 104.31 43.3799C103.1 44.2199 102.49 45.3199 102.49 46.6899C102.49 48.0599 103.19 49.0799 104.59 49.7499C105.99 50.4199 108.13 51.0699 111.01 51.7199C114 52.4399 116.44 53.1699 118.35 53.8899C120.26 54.6099 121.89 55.7599 123.25 57.3199C124.61 58.8799 125.29 60.9999 125.29 63.6599C125.29 65.9499 124.66 68.0299 123.41 69.9199C122.16 71.8099 120.28 73.2999 117.78 74.3999C115.28 75.4999 112.23 76.0599 108.65 76.0599C105.55 76.0599 102.55 75.6299 99.66 74.7699L99.64 74.7499ZM160.23 62.49H137.43C137.84 64.39 138.81 65.9 140.34 67C141.87 68.1 143.78 68.66 146.05 68.66C147.62 68.66 149.01 68.42 150.22 67.95C151.43 67.47 152.56 66.72 153.61 65.69L158.26 70.83C155.42 74.14 151.28 75.8 145.82 75.8C142.42 75.8 139.41 75.12 136.8 73.77C134.19 72.42 132.17 70.54 130.75 68.14C129.33 65.74 128.62 63.02 128.62 59.97C128.62 56.92 129.32 54.25 130.72 51.83C132.12 49.41 134.04 47.53 136.49 46.17C138.94 44.82 141.67 44.14 144.7 44.14C147.73 44.14 150.32 44.79 152.71 46.08C155.1 47.37 156.98 49.23 158.34 51.65C159.7 54.07 160.38 56.88 160.38 60.08C160.38 60.1792 160.331 60.8395 160.241 62.061L160.21 62.48L160.23 62.49ZM139.78 52.61C138.44 53.75 137.61 55.31 137.32 57.29H152.17C151.87 55.35 151.05 53.8 149.71 52.63C148.37 51.47 146.72 50.89 144.78 50.89C142.84 50.89 141.14 51.46 139.79 52.6L139.78 52.61ZM194.81 57.7499C194.81 53.2499 193.66 49.8699 191.36 47.5799V47.5899C189.06 45.2999 186.04 44.1599 182.31 44.1599C180.25 44.1599 178.37 44.5199 176.65 45.2199C174.94 45.9299 173.5 46.9299 172.34 48.2199V44.6199H163.99V75.3499H172.73V60.1499C172.73 57.4099 173.38 55.3399 174.69 53.9499C176 52.5599 177.76 51.8599 179.96 51.8599C181.94 51.8599 183.45 52.4599 184.5 53.6599C185.55 54.8599 186.07 56.6799 186.07 59.1199V75.3399H194.81V57.7499ZM238.25 65.9499C240.1 69.0899 242.66 71.5599 245.93 73.3499C249.2 75.1499 252.87 76.0399 256.94 76.0399C261.01 76.0399 264.67 75.1399 267.92 73.3499C271.17 71.5599 273.73 69.0899 275.6 65.9499C277.47 62.8099 278.4 59.2799 278.4 55.3499C278.4 51.4199 277.47 47.8899 275.6 44.7499C273.73 41.6099 271.17 39.1399 267.92 37.3499C264.67 35.5599 261.01 34.6599 256.94 34.6599C252.87 34.6599 249.2 35.5599 245.93 37.3499C242.66 39.1399 240.1 41.6099 238.25 44.7499C236.4 47.8899 235.48 51.4199 235.48 55.3499C235.48 59.2799 236.4 62.8099 238.25 65.9499ZM267.61 61.9799C266.54 63.9199 265.08 65.4399 263.21 66.5199C261.34 67.6099 259.24 68.1499 256.93 68.1499C254.62 68.1499 252.53 67.6099 250.66 66.5199C248.79 65.4399 247.32 63.9199 246.26 61.9799C245.19 60.0299 244.66 57.8299 244.66 55.3499C244.66 52.8699 245.19 50.6599 246.26 48.7199C247.33 46.7799 248.79 45.2699 250.66 44.1799C252.52 43.0899 254.61 42.5499 256.93 42.5499C259.25 42.5499 261.34 43.0899 263.21 44.1799C265.08 45.2599 266.54 46.7699 267.61 48.7199C268.68 50.6699 269.21 52.8699 269.21 55.3499C269.21 57.8299 268.67 60.0399 267.61 61.9799ZM331.9 44.61L320.97 75.34H312.57L305.79 56.26L298.79 75.34H290.39L279.52 44.61H287.76L294.88 65.4L302.28 44.61H309.68L316.85 65.4L324.19 44.61H331.9Z" fill="currentColor"></path><path fill-rule="evenodd" clip-rule="evenodd" d="M33.77 0C52.42 0 67.54 14.75 67.54 32.94V105.51C67.54 106.36 66.83 107.05 65.96 107.05H50.66C22.68 107.06 0 84.94 0 57.65V32.94C0 14.75 15.12 0 33.77 0ZM5.28 51.11C4.76 51.11 4.33 51.47 4.24 51.95L4.22 52.14V58.39C4.63 82.81 24.85 102.54 49.89 102.93H50.65H62.61C62.95 102.93 63.23 102.69 63.3 102.38V102.24L63.31 99.49C63.31 99.16 63.07 98.88 62.75 98.82H62.61L50.65 98.81H49.92C27.19 98.43 8.83 80.52 8.45 58.35V57.63V55.04C8.45 54.88 8.41 54.72 8.34 54.58L8.26 54.44L6.15 51.52C5.95 51.25 5.63 51.08 5.29 51.08L5.28 51.11ZM13.78 59.67C13.2 59.71 12.76 60.21 12.81 60.77C12.84 61.17 12.87 61.51 12.9 61.8C14.99 80.09 30.71 94.36 49.93 94.7H50.65H62.61C62.95 94.7 63.23 94.46 63.3 94.15V94.01L63.31 91.26C63.31 90.93 63.07 90.65 62.75 90.59H62.61L50.65 90.58H49.99C33.82 90.27 20.43 78.87 17.49 63.86C17.43 63.54 17.33 62.94 17.2 62.06C17.17 61.83 17.05 61.62 16.88 61.46L16.74 61.35L14.45 59.83C14.25 59.7 14.02 59.64 13.78 59.66V59.67ZM23.15 64.22L22.96 64.25C22.4 64.4 22.07 64.97 22.22 65.51C22.28 65.72 22.33 65.91 22.38 66.07C26.01 77.67 36.93 86.16 49.93 86.46H50.64H62.6C62.94 86.46 63.22 86.22 63.29 85.91V85.77L63.3 83.02C63.3 82.69 63.06 82.41 62.74 82.35H62.6L50.64 82.34H50C39.79 82.08 31.08 75.94 27.31 67.26C27.16 66.91 26.95 66.36 26.67 65.6C26.58 65.35 26.4 65.15 26.16 65.03L25.97 64.96L23.52 64.25L23.33 64.21H23.14L23.15 64.22ZM32.96 65.8C32.79 65.8 32.62 65.84 32.47 65.91C31.95 66.17 31.75 66.79 32.02 67.3C32.17 67.59 32.3 67.83 32.42 68.02C35.97 73.95 42.48 77.99 49.97 78.22H50.65L62.61 78.23C62.95 78.23 63.23 77.99 63.3 77.68V77.54L63.31 74.79C63.31 74.46 63.07 74.18 62.75 74.12H62.61L50.65 74.11H50.12C45.01 73.95 40.47 71.58 37.48 67.95C37.17 67.58 36.78 67.02 36.29 66.28C36.13 66.04 35.87 65.87 35.58 65.82L35.4 65.8H32.95H32.96ZM44.91 64.04L44.73 64.07L42.29 64.74C42.12 64.79 41.96 64.88 41.84 65C41.43 65.4 41.42 66.05 41.83 66.46C42.23 66.85 42.57 67.16 42.87 67.39C44.86 68.91 47.34 69.86 50.04 69.99H50.67L62.63 70C62.97 70 63.25 69.76 63.32 69.45V69.31L63.33 66.56C63.33 66.23 63.09 65.95 62.77 65.89H62.63L50.67 65.88H50.25C49.22 65.82 48.25 65.59 47.35 65.22C46.92 65.04 46.34 64.71 45.64 64.22C45.43 64.08 45.18 64.02 44.93 64.04H44.91ZM6.53 22.15L6.33 22.65V22.22C4.97 25.53 4.22 29.15 4.22 32.94C4.22 48.86 17.45 61.76 33.76 61.76C50.07 61.76 63.3 48.86 63.3 32.94C63.3 29.47 62.67 26.14 61.52 23.05L61.19 22.22V22.65C55.31 7.35 35.16 14.41 35.16 26.77C35.16 28.83 32.35 28.83 32.35 26.77C32.35 14.54 13.06 6.35 6.52 22.15H6.53ZM62.61 57.65H56.44C56.28 57.65 56.12 57.69 55.97 57.76L55.83 57.84L52.28 60.29C52.06 60.44 51.93 60.69 51.93 60.95C51.93 61.34 52.22 61.67 52.6 61.75L52.77 61.77H62.62C62.96 61.77 63.24 61.53 63.31 61.22V61.08L63.32 58.33V58.19C63.24 57.88 62.96 57.64 62.62 57.64L62.61 57.65ZM18.99 20.59C22.49 20.59 25.32 23.36 25.32 26.77C25.32 30.18 22.49 32.95 18.99 32.95C15.49 32.95 12.66 30.18 12.66 26.77C12.66 23.36 15.49 20.59 18.99 20.59ZM48.54 20.59C52.04 20.59 54.87 23.36 54.87 26.77C54.87 30.18 52.04 32.95 48.54 32.95C45.04 32.95 42.21 30.18 42.21 26.77C42.21 23.36 45.04 20.59 48.54 20.59Z" fill="currentColor"></path></svg></div></a><div class="Header_signUpMobileNavLink__zw9bu"><a class="NavLink_navLink__SgtFn" href="https://dashboard.sendowl.com/signup">Sign up</a></div><div class="Header_toggleContainer___8gxc"><button class="NavToggle_navToggle__r6zVM"><span aria-hidden="true"></span><span aria-hidden="true"></span></button></div><div class="Header_linksContainerDesktop__EoscA"><nav class="Header_navLinksDesktop__A_3Gw"><div class="Header_megaMenuTrigger__4hkNx"><a class="NavLink_navLink__SgtFn NavLink_hasDropdown__l3xNd" href="/platform">Features<svg class="NavLink_dropdownChevron__piFRR" width="12" height="12" viewBox="0 0 24 24" fill="none" xmlns="http://www.w3.org/2000/svg"><path d="M6 9L12 15L18 9" stroke="currentColor" stroke-width="2" stroke-linecap="round" stroke-linejoin="round"></path></svg></a></div><a class="NavLink_navLink__SgtFn" href="/pricing">Pricing</a><a class="NavLink_navLink__SgtFn" href="/blog">Blog</a><a class="NavLink_navLink__SgtFn" href="/referral">Referral</a></nav><div class="Header_loginButtons__ciTjC"><a class="NavLink_navLink__SgtFn" href="https://dashboard.sendowl.com/login">Log in</a><a class="Button_button__8B4nB Button_black__CeFhd" style="background-color:#1B7476" href="https://dashboard.sendowl.com/signup">Sign up for free</a></div></div></div><div class="Header_mobileMenuContainer__7IC95" style="--num-of-links:5"><div class="Header_linksContainerMobile__PiNEj"><nav class="Header_navLinksMobile__Xz8bF"><a class="NavLink_navLink__SgtFn" href="/platform">Features</a><a class="NavLink_navLink__SgtFn" href="/pricing">Pricing</a><a class="NavLink_navLink__SgtFn" href="/blog">Blog</a><a class="NavLink_navLink__SgtFn" href="/referral">Referral</a><a class="NavLink_navLink__SgtFn" href="https://dashboard.sendowl.com/login">Log in</a></nav><h4 class="Header_ctaHeader__t6pOM">Get started<br/>for free.</h4><a class="Button_button__8B4nB Button_black__CeFhd" style="background-color:#1B7476" href="https://dashboard.sendowl.com/signup">Sign up for free</a></div></div></header><div class="Header_megaMenuWrapper__9b3HU"><div class="MegaMenu_megaMenu__jgCPc" role="menu" aria-hidden="true"><div class="MegaMenu_megaMenuContent__4kpf3"><div class="MegaMenu_primaryLinks__VZwu4"><a class="MegaMenu_primaryLink__wc71V" href="/platform"><span class="MegaMenu_primaryLinkTitle__HbYE1">SendOwl Features</span><span class="MegaMenu_primaryLinkDescription___KSaG">Explore features that support digital sales</span><svg class="MegaMenu_primaryLinkArrow__AuhVD" width="20" height="20" viewBox="0 0 24 24" fill="none" xmlns="http://www.w3.org/2000/svg"><path d="M5 12H19M19 12L12 5M19 12L12 19" stroke="currentColor" stroke-width="2" stroke-linecap="round" stroke-linejoin="round"></path></svg></a><a class="MegaMenu_primaryLink__wc71V" href="/solopreneurs"><span class="MegaMenu_primaryLinkTitle__HbYE1">Solopreneurs</span><span class="MegaMenu_primaryLinkDescription___KSaG">Perfect for individual creators and side hustles</span><svg class="MegaMenu_primaryLinkArrow__AuhVD" width="20" height="20" viewBox="0 0 24 24" fill="none" xmlns="http://www.w3.org/2000/svg"><path d="M5 12H19M19 12L12 5M19 12L12 19" stroke="currentColor" stroke-width="2" stroke-linecap="round" stroke-linejoin="round"></path></svg></a><a class="MegaMenu_primaryLink__wc71V" href="/enterprises"><span class="MegaMenu_primaryLinkTitle__HbYE1">Businesses</span><span class="MegaMenu_primaryLinkDescription___KSaG">Scale your digital product operations with your team</span><svg class="MegaMenu_primaryLinkArrow__AuhVD" width="20" height="20" viewBox="0 0 24 24" fill="none" xmlns="http://www.w3.org/2000/svg"><path d="M5 12H19M19 12L12 5M19 12L12 19" stroke="currentColor" stroke-width="2" stroke-linecap="round" stroke-linejoin="round"></path></svg></a></div><div class="MegaMenu_integrationSection__uixt7"><span class="MegaMenu_integrationLabel__oR3aY">Integrations</span><div class="MegaMenu_integrationLinks__DPvlA"><a class="MegaMenu_integrationLink__clJgp" href="/stripe-app">Stripe</a><a class="MegaMenu_integrationLink__clJgp" href="/shopify">Shopify</a><a class="MegaMenu_integrationLink__clJgp" href="/paypal">PayPal</a></div></div></div></div></div></div></div><div data-focus-guard="true" tabindex="-1" style="width:1px;height:0px;padding:0;overflow:hidden;position:fixed;top:1px;left:1px"></div><main><section class="HeroHomepage_heroSection__wfKJ6"><div class="HeroHomepage_heroContent__V292l"><div class="HeroHomepage_heroText___3bLp HeroHomepage_smallerHorizontalPadding__TrqGQ"><h1>Sell anything digital - simply, securely, reliably</h1><p class="">Sell directly to your customers - no marketplace, no middleman</p><a class="Button_button__8B4nB Button_black__CeFhd" href="https://dashboard.sendowl.com/signup">Start for free</a></div><div class="HeroHomepage_animationWrapper__mrWK_"><div class="HeroHomepage_visualItem__38kWY HeroHomepage_active__VrEDw"><div class="WellnessVisual_wrapper__SQ6w7"><div class="WellnessVisual_storefront__9vLD3"><div class="WellnessVisual_storefrontBlock__WH1CF WellnessVisual_storefrontSkeleton__FF0eN"><div></div><div></div><div></div><div></div><div></div><div></div></div><div class="WellnessVisual_storefrontBlock__WH1CF"><img alt="yoga" loading="lazy" width="1154" height="923" decoding="async" data-nimg="1" style="color:transparent" srcSet="/_next/image?url=%2F_next%2Fstatic%2Fmedia%2Fyoga.4f8dd564.jpeg&amp;w=1200&amp;q=75 1x, /_next/image?url=%2F_next%2Fstatic%2Fmedia%2Fyoga.4f8dd564.jpeg&amp;w=3840&amp;q=75 2x" src="/_next/image?url=%2F_next%2Fstatic%2Fmedia%2Fyoga.4f8dd564.jpeg&amp;w=3840&amp;q=75"/></div><div class="WellnessVisual_storefrontBlock__WH1CF"><img alt="yoga" loading="lazy" width="1368" height="892" decoding="async" data-nimg="1" style="color:transparent" srcSet="/_next/image?url=%2F_next%2Fstatic%2Fmedia%2Fjars.7831e68c.jpeg&amp;w=1920&amp;q=75 1x, /_next/image?url=%2F_next%2Fstatic%2Fmedia%2Fjars.7831e68c.jpeg&amp;w=3840&amp;q=75 2x" src="/_next/image?url=%2F_next%2Fstatic%2Fmedia%2Fjars.7831e68c.jpeg&amp;w=3840&amp;q=75"/></div><div class="WellnessVisual_storefrontBlock__WH1CF"><img alt="yoga" loading="lazy" width="912" height="1368" decoding="async" data-nimg="1" style="color:transparent" srcSet="/_next/image?url=%2F_next%2Fstatic%2Fmedia%2Ffitness.2fcf51e6.jpeg&amp;w=1080&amp;q=75 1x, /_next/image?url=%2F_next%2Fstatic%2Fmedia%2Ffitness.2fcf51e6.jpeg&amp;w=1920&amp;q=75 2x" src="/_next/image?url=%2F_next%2Fstatic%2Fmedia%2Ffitness.2fcf51e6.jpeg&amp;w=1920&amp;q=75"/></div></div><div class="WellnessVisual_productCardWrapper__C194Y"><div class="ProductCard_productCard__G55g3"><div class="ProductCard_productTypeTag__qGIlx">PDF</div><img alt="Summer Slim Meal Plan" loading="lazy" width="331" height="274" decoding="async" data-nimg="1" class="ProductCard_productImage__XhQOq" style="color:transparent" srcSet="/_next/image?url=%2F_next%2Fstatic%2Fmedia%2Fsummer-slim-plan.9b417e65.jpg&amp;w=384&amp;q=75 1x, /_next/image?url=%2F_next%2Fstatic%2Fmedia%2Fsummer-slim-plan.9b417e65.jpg&amp;w=750&amp;q=75 2x" src="/_next/image?url=%2F_next%2Fstatic%2Fmedia%2Fsummer-slim-plan.9b417e65.jpg&amp;w=750&amp;q=75"/><div class="ProductCard_productInfo__xW4Ib"><div class="ProductCard_productDesc__IHae_"><div class="ProductCard_productName__zZajr">Summer Slim Meal Plan</div><div class="ProductCard_merchant__1qJ_X">Wellness with Ashlee</div></div><div class="ProductCard_productPrice__RU2yA"><div class="ProductCard_price__X06Ps">$19.99</div></div></div></div></div><div class="WellnessVisual_pdfDigitalGoodWrapper__x5OJo"><div class="DigitalGood_digitalGood__naBEH"><svg xmlns="http://www.w3.org/2000/svg" width="28" height="29" fill="none"><g stroke="#FFFFFF" stroke-linecap="round" stroke-linejoin="round" stroke-width="2"><path d="M25.666 12.167V18c0 5.833-2.333 8.167-8.166 8.167h-7c-5.834 0-8.167-2.334-8.167-8.167v-7c0-5.833 2.333-8.167 8.167-8.167h5.833"></path><path d="M25.666 12.167H21c-3.5 0-4.667-1.167-4.667-4.667V2.833l9.333 9.334Z"></path></g></svg><div class="DigitalGood_infoDiv__Eg6nH"><h5>PDF</h5><div>Digital PDF document</div></div></div></div><div class="WellnessVisual_bundleDigitalGoodWrapper__8Ng2_"><div class="DigitalGood_digitalGood__naBEH"><svg xmlns="http://www.w3.org/2000/svg" width="28" height="29" fill="none"><g stroke="#FFFFFF" stroke-linecap="round" stroke-linejoin="round" stroke-width="2"><path d="M19.833 16.133v3.5c0 4.667-1.867 6.534-6.533 6.534H8.866c-4.666 0-6.533-1.867-6.533-6.534V15.2c0-4.667 1.867-6.533 6.533-6.533h3.5"></path><path d="M19.834 16.133H16.1c-2.8 0-3.734-.933-3.734-3.733V8.667l7.467 7.466ZM13.533 2.833H18.2M8.167 6.333c0-1.936 1.563-3.5 3.5-3.5h3.057M25.667 9.833v7.222a3.281 3.281 0 0 1-3.278 3.278M25.667 9.833h-3.5c-2.625 0-3.5-.875-3.5-3.5v-3.5l7 7Z"></path></g></svg><div class="DigitalGood_infoDiv__Eg6nH"><h5>Bundle</h5><div>Sell multiple files together</div></div></div></div></div></div><div class="HeroHomepage_visualItem__38kWY"><div class="MusicVisual_wrapper__Lzldf"><div class="MusicVisual_storefront__TPV9c"><div class="MusicVisual_storefrontBlock__VXUth MusicVisual_storefrontSkeleton__3N1XS"><div></div><div></div><div></div><div></div></div><div class="MusicVisual_storefrontBlock__VXUth"><img alt="music" loading="lazy" width="4096" height="2731" decoding="async" data-nimg="1" style="color:transparent" srcSet="/_next/image?url=%2F_next%2Fstatic%2Fmedia%2Fmusic.33bc96c6.jpeg&amp;w=3840&amp;q=75 1x" src="/_next/image?url=%2F_next%2Fstatic%2Fmedia%2Fmusic.33bc96c6.jpeg&amp;w=3840&amp;q=75"/></div></div><div class="MusicVisual_product1CardWrapper__u3WcK"><div class="ProductCard_productCard__G55g3"><div class="ProductCard_productTypeTag__qGIlx">Music</div><img alt="Echoes of Yesterday" loading="lazy" width="410" height="72" decoding="async" data-nimg="1" class="ProductCard_productImage__XhQOq" style="color:transparent" src="/_next/static/media/music-paused.86af7dbe.svg"/><div class="ProductCard_productInfo__xW4Ib"><div class="ProductCard_productDesc__IHae_"><div class="ProductCard_productName__zZajr">Echoes of Yesterday</div><div class="ProductCard_merchant__1qJ_X">Dylan Chase</div></div><div class="ProductCard_productPrice__RU2yA"><div class="ProductCard_price__X06Ps">$9.99</div></div></div></div></div><div class="MusicVisual_product2CardWrapper__RvqpJ"><div class="ProductCard_productCard__G55g3"><div class="ProductCard_productTypeTag__qGIlx">Music</div><img alt="Neon Dreams" loading="lazy" width="410" height="72" decoding="async" data-nimg="1" class="ProductCard_productImage__XhQOq" style="color:transparent" src="/_next/static/media/music-playing.b6df6787.svg"/><div class="ProductCard_productInfo__xW4Ib"><div class="ProductCard_productDesc__IHae_"><div class="ProductCard_productName__zZajr">Neon Dreams</div><div class="ProductCard_merchant__1qJ_X">Dylan Chase</div></div></div></div></div><div class="MusicVisual_musicDigitalGoodWrapper___FFLP"><div class="DigitalGood_digitalGood__naBEH"><svg xmlns="http://www.w3.org/2000/svg" width="28" height="29" fill="none"><g stroke="#FFFFFF" stroke-linecap="round" stroke-linejoin="round" stroke-width="2"><path d="M25.666 12.167V18c0 5.833-2.333 8.167-8.166 8.167h-7c-5.834 0-8.167-2.334-8.167-8.167v-7c0-5.833 2.333-8.167 8.167-8.167h5.833"></path><path d="M25.666 12.167H21c-3.5 0-4.667-1.167-4.667-4.667V2.833l9.333 9.334Z"></path></g></svg><div class="DigitalGood_infoDiv__Eg6nH"><h5>Music</h5><div>Audio File</div></div></div></div><div class="MusicVisual_streamingDigitalGoodWrapper__F2Gnp"><div class="DigitalGood_digitalGood__naBEH"><svg xmlns="http://www.w3.org/2000/svg" width="28" height="29" fill="none"><g stroke="#FFFFFF" stroke-linecap="round" stroke-linejoin="round" stroke-width="2"><path d="M25.666 12.167V18c0 5.833-2.333 8.167-8.166 8.167h-7c-5.834 0-8.167-2.334-8.167-8.167v-7c0-5.833 2.333-8.167 8.167-8.167h5.833"></path><path d="M25.666 12.167H21c-3.5 0-4.667-1.167-4.667-4.667V2.833l9.333 9.334Z"></path></g></svg><div class="DigitalGood_infoDiv__Eg6nH"><h5>Streaming Audio</h5><div>Stream your audio online</div></div></div></div></div></div><div class="HeroHomepage_visualItem__38kWY"><div class="RenovationVisual_wrapper__dC9CB"><div class="RenovationVisual_storefront__VILuv"><div class="RenovationVisual_storefrontBlock__WkYCl RenovationVisual_storefrontSkeleton___fAD_"><div></div><div></div><div></div><div></div></div><div class="RenovationVisual_storefrontBlock__WkYCl"><img alt="renovation" loading="lazy" width="1222" height="814" decoding="async" data-nimg="1" style="color:transparent" srcSet="/_next/image?url=%2F_next%2Fstatic%2Fmedia%2Frenovation.b4025281.jpeg&amp;w=1920&amp;q=75 1x, /_next/image?url=%2F_next%2Fstatic%2Fmedia%2Frenovation.b4025281.jpeg&amp;w=3840&amp;q=75 2x" src="/_next/image?url=%2F_next%2Fstatic%2Fmedia%2Frenovation.b4025281.jpeg&amp;w=3840&amp;q=75"/></div></div><div class="RenovationVisual_product1CardWrapper__pt8QO"><div class="ProductCard_productCard__G55g3"><div class="ProductCard_productTypeTag__qGIlx">e-book</div><img alt="The Pros Guide to Home Renovation" loading="lazy" width="331" height="315" decoding="async" data-nimg="1" class="ProductCard_productImage__XhQOq" style="color:transparent" srcSet="/_next/image?url=%2F_next%2Fstatic%2Fmedia%2Fhome-renovation.d1bedb52.jpg&amp;w=384&amp;q=75 1x, /_next/image?url=%2F_next%2Fstatic%2Fmedia%2Fhome-renovation.d1bedb52.jpg&amp;w=750&amp;q=75 2x" src="/_next/image?url=%2F_next%2Fstatic%2Fmedia%2Fhome-renovation.d1bedb52.jpg&amp;w=750&amp;q=75"/><div class="ProductCard_productInfo__xW4Ib"><div class="ProductCard_productDesc__IHae_"><div class="ProductCard_productName__zZajr">The Pros Guide to Home Renovation</div><div class="ProductCard_merchant__1qJ_X">DIY Dream Team</div></div><div class="ProductCard_productPrice__RU2yA"><div class="ProductCard_price__X06Ps">$24.99</div></div></div></div></div><div class="RenovationVisual_curatedDigitalGoodWrapper__6ethu"><div class="DigitalGood_digitalGood__naBEH"><svg xmlns="http://www.w3.org/2000/svg" width="28" height="29" fill="none"><mask id="a" width="28" height="29" x="0" y="0" maskUnits="userSpaceOnUse" style="mask-type:luminance"><path fill="#fff" d="M28 .5H0v28h28V.5Z"></path></mask><g mask="url(#a)"><path fill="#FFFFFF" d="M4.375 6.625a.875.875 0 0 1 0-1.75h19.25a.875.875 0 1 1 0 1.75H4.375Zm3.5-3.5a.875.875 0 0 1 0-1.75h12.25a.875.875 0 1 1 0 1.75H7.875ZM0 23.25a2.625 2.625 0 0 0 2.625 2.625h22.75A2.625 2.625 0 0 0 28 23.25V11a2.625 2.625 0 0 0-2.625-2.625H2.625A2.625 2.625 0 0 0 0 11v12.25Zm2.625.875a.875.875 0 0 1-.875-.875V11a.875.875 0 0 1 .875-.875h22.75a.875.875 0 0 1 .875.875v12.25a.875.875 0 0 1-.875.875H2.625Z"></path></g></svg><div class="DigitalGood_infoDiv__Eg6nH"><h5>Curated Collection</h5><div>Sell multiple files in a bundle</div></div></div></div><div class="RenovationVisual_ebookDigitalGoodWrapper__Omi7f"><div class="DigitalGood_digitalGood__naBEH"><svg xmlns="http://www.w3.org/2000/svg" width="28" height="29" fill="none"><g stroke="#FFFFFF" stroke-linecap="round" stroke-linejoin="round" stroke-width="2"><path d="M25.666 20.03V5.948c0-1.4-1.143-2.438-2.531-2.321h-.07c-2.45.21-6.172 1.458-8.249 2.765l-.198.128c-.338.21-.898.21-1.237 0l-.291-.175c-2.077-1.295-5.787-2.532-8.237-2.73-1.388-.117-2.52.933-2.52 2.322V20.03c0 1.12.91 2.17 2.03 2.31l.338.047c2.532.338 6.44 1.621 8.68 2.846l.047.024c.315.175.817.175 1.12 0 2.24-1.237 6.16-2.532 8.703-2.87l.385-.047c1.12-.14 2.03-1.19 2.03-2.31ZM14 6.905v17.5M9.042 10.405H6.417M9.917 13.905h-3.5"></path></g></svg><div class="DigitalGood_infoDiv__Eg6nH"><h5>e-book</h5><div>Digital book</div></div></div></div><div class="RenovationVisual_bundleIconGoodWrapper__UAbOu"><div class="DigitalGood_digitalGood__naBEH"><svg xmlns="http://www.w3.org/2000/svg" width="28" height="29" fill="none"><g stroke="#FFFFFF" stroke-linecap="round" stroke-linejoin="round" stroke-width="2"><path d="M19.833 16.133v3.5c0 4.667-1.867 6.534-6.533 6.534H8.866c-4.666 0-6.533-1.867-6.533-6.534V15.2c0-4.667 1.867-6.533 6.533-6.533h3.5"></path><path d="M19.834 16.133H16.1c-2.8 0-3.734-.933-3.734-3.733V8.667l7.467 7.466ZM13.533 2.833H18.2M8.167 6.333c0-1.936 1.563-3.5 3.5-3.5h3.057M25.667 9.833v7.222a3.281 3.281 0 0 1-3.278 3.278M25.667 9.833h-3.5c-2.625 0-3.5-.875-3.5-3.5v-3.5l7 7Z"></path></g></svg></div></div><div class="RenovationVisual_ebookIconGoodWrapper__rKKOd"><div class="DigitalGood_digitalGood__naBEH"><svg xmlns="http://www.w3.org/2000/svg" width="28" height="29" fill="none"><g stroke="#FFFFFF" stroke-linecap="round" stroke-linejoin="round" stroke-width="2"><path d="M25.666 20.03V5.948c0-1.4-1.143-2.438-2.531-2.321h-.07c-2.45.21-6.172 1.458-8.249 2.765l-.198.128c-.338.21-.898.21-1.237 0l-.291-.175c-2.077-1.295-5.787-2.532-8.237-2.73-1.388-.117-2.52.933-2.52 2.322V20.03c0 1.12.91 2.17 2.03 2.31l.338.047c2.532.338 6.44 1.621 8.68 2.846l.047.024c.315.175.817.175 1.12 0 2.24-1.237 6.16-2.532 8.703-2.87l.385-.047c1.12-.14 2.03-1.19 2.03-2.31ZM14 6.905v17.5M9.042 10.405H6.417M9.917 13.905h-3.5"></path></g></svg>
